<?xml version="1.0" encoding="UTF-8" standalone="no"?>
<!DOCTYPE svg PUBLIC "-//W3C//DTD SVG 1.1//EN" "http://www.w3.org/Graphics/SVG/1.1/DTD/svg11.dtd">
<!-- Generated by Microsoft Visio, SVG Export bee.svg Page-1 -->
<svg xmlns="http://www.w3.org/2000/svg" xmlns:xlink="http://www.w3.org/1999/xlink" xmlns:ev="http://www.w3.org/2001/xml-events"
		xmlns:v="http://schemas.microsoft.com/visio/2003/SVGExtensions/" width="11in" height="8.5in" viewBox="0 0 792 612"
		xml:space="preserve" color-interpolation-filters="sRGB" class="st3">
	<v:documentProperties v:langID="1033" v:viewMarkup="false">
		<v:userDefs>
			<v:ud v:nameU="msvSubprocessMaster" v:prompt="" v:val="VT4(Rectangle)"/>
			<v:ud v:nameU="msvNoAutoConnect" v:val="VT0(1):26"/>
		</v:userDefs>
	</v:documentProperties>

	<style type="text/css">
	<![CDATA[
		.st1 {fill:#000000;stroke:#000000;stroke-width:6}
		.st2 {fill:none;stroke:#000000;stroke-width:6}
		.st3 {fill:none;fill-rule:evenodd;font-size:12px;overflow:visible;stroke-linecap:square;stroke-miterlimit:3}
	]]>
	</style>

	<g v:mID="0" v:index="1" v:groupContext="foregroundPage">
		<v:userDefs>
			<v:ud v:nameU="msvThemeOrder" v:val="VT0(0):26"/>
		</v:userDefs>
		<title>Page-1</title>
		<v:pageProperties v:drawingScale="1" v:pageScale="1" v:drawingUnits="0" v:shadowOffsetX="9" v:shadowOffsetY="-9"/>
		<g id="group61-1" transform="translate(150.601,-71.7901)" v:mID="61" v:groupContext="group">
			<title>Sheet.61</title>
			<g id="shape2-2" v:mID="2" v:groupContext="shape" transform="translate(38.3991,-180)">
				<title>Circle</title>
				<v:userDefs>
					<v:ud v:nameU="visVersion" v:val="VT0(15):26"/>
				</v:userDefs>
				<path d="M0 567 A45 45 0 1 1 90 567 A45 45 0 0 1 0 567 Z" class="st1"/>
			</g>
			<g id="shape29-4" v:mID="29" v:groupContext="shape" transform="translate(32.0738,-117.974)">
				<title>Sheet.29</title>
				<path d="M102.65 612 A90 54 -90 0 0 98.47 596.1 L4.64 596.1 L3.81 597.21 A90 54 -90 0 0 0 612 L102.65 612 Z"
						class="st1"/>
			</g>
			<g id="shape34-6" v:mID="34" v:groupContext="shape" transform="translate(29.4039,-91.2007)">
				<title>Sheet.34</title>
				<path d="M0 612 L107.99 612 A90 54 -90 0 0 105.32 585.23 L2.67 585.23 A90 54 -90 0 0 -0 612 Z" class="st2"/>
			</g>
			<g id="shape36-8" v:mID="36" v:groupContext="shape" transform="translate(29.3991,-75.2993)">
				<title>Sheet.36</title>
				<path d="M0.73 612 L107.27 612 A90 54 -90 0 0 108 596.1 L0 596.1 A90 54 -90 0 0 0.73 612 Z" class="st1"/>
			</g>
			<g id="shape47-10" v:mID="47" v:groupContext="shape" transform="translate(35.9203,0)">
				<title>Sheet.47</title>
				<path d="M94.96 564.87 A81 54 -180 0 0 -0 564.87 A90 54 -90 0 0 47.48 612 A90 54 -90 0 0 94.96 564.87 Z"
						class="st1"/>
			</g>
			<g id="shape49-12" v:mID="49" v:groupContext="shape" transform="translate(30.1244,-47.1256)">
				<title>Sheet.49</title>
				<path d="M100.75 612 A90 54 -90 0 0 106.55 583.83 L0 583.83 A90 54 -90 0 0 5.8 612 A81 54 0 0 1 100.75 612 Z"
						class="st2"/>
			</g>
			<g id="shape50-14" v:mID="50" v:groupContext="shape" transform="translate(35.883,-132.76)">
				<title>Sheet.50</title>
				<path d="M80.92 584.05 A36 14.0488 0 0 1 14.11 584.05 A90 54 -90 0 0 0 612 L0.83 610.88 L94.66 610.88 A90 54 -90
							 0 0 80.92 584.05 Z" class="st2"/>
			</g>
			<g id="shape53-16" v:mID="53" v:groupContext="shape" transform="translate(49.9947,-151.902)">
				<title>Sheet.53</title>
				<path d="M33.4 583.9 A90 54 -90 0 0 -0 603.19 A36 14.0488 -180 0 0 66.81 603.19 A90 54 -90 0 0 33.4 583.9 Z"
						class="st1"/>
			</g>
			<g id="shape55-18" v:mID="55" v:groupContext="shape" transform="translate(29.3991,-270)">
				<title>Sheet.55</title>
				<path d="M67.2 530.01 A54 41.625 -180 0 0 -0 570.38 A54 41.625 -180 0 0 99.21 593.13 A45 45 0 0 1 67.2 530.01 Z"
						class="st1"/>
			</g>
			<g id="shape56-20" v:mID="56" v:groupContext="shape" transform="translate(-339.786,579.622) rotate(-120)">
				<title>Sheet.56</title>
				<path d="M8.86 550.38 A36 36 0 1 1 37.43 602.84 A54 41.625 0 0 1 32.01 611.13 A45 45 -180 1 0 -0 548.01 A54 41.625
							 0 0 1 8.86 550.38 Z" class="st1"/>
			</g>
			<g id="shape57-22" v:mID="57" v:groupContext="shape" transform="translate(92.3991,-288.866)">
				<title>Sheet.57</title>
				<path d="M13.06 551.25 A54 41.625 -180 0 0 4.2 548.88 A45 45 -180 0 0 36.21 612 A54 41.625 -180 0 0 41.63 603.71
							 A36 36 0 0 1 13.06 551.25 Z" class="st1"/>
			</g>
			<g id="shape58-24" v:mID="58" v:groupContext="shape" transform="translate(101.399,-297.158)">
				<title>Sheet.58</title>
				<path d="M4.06 559.54 A36 36 -180 0 0 32.63 612 A54 41.625 -180 0 0 36 597.53 A54 41.625 -180 0 0 4.06 559.54 Z"
						class="st1"/>
			</g>
			<g id="shape60-26" v:mID="60" v:groupContext="shape" transform="translate(3.19744E-14,-306)">
				<title>Sheet.60</title>
				<path d="M8.86 550.38 A36 36 0 1 1 37.43 602.84 A54 41.625 0 0 1 32.01 611.13 A45 45 -180 1 0 -0 548.01 A54 41.625
							 0 0 1 8.86 550.38 Z" class="st1"/>
			</g>
		</g>
		<g id="shape62-28" v:mID="62" v:groupContext="shape" transform="translate(720.365,557.701) rotate(120)">
			<title>Ellipse</title>
			<v:userDefs>
				<v:ud v:nameU="visVersion" v:val="VT0(15):26"/>
			</v:userDefs>
			<path d="M0 571.5 A135 40.5 0 0 1 270 571.5 A135 40.5 0 0 1 0 571.5 Z" class="st2"/>
		</g>
		<g id="shape63-30" v:mID="63" v:groupContext="shape" transform="translate(737.502,-13.7994) rotate(60)">
			<title>Ellipse.63</title>
			<v:userDefs>
				<v:ud v:nameU="visVersion" v:val="VT0(15):26"/>
			</v:userDefs>
			<path d="M0 571.5 A135 40.5 0 0 1 270 571.5 A135 40.5 0 0 1 0 571.5 Z" class="st2"/>
		</g>
	</g>
</svg>
